<svg width="32" height="32" viewBox="0 0 32 32" fill="none" xmlns="http://www.w3.org/2000/svg">
    <path fill-rule="evenodd" clip-rule="evenodd" d="M16.477 19.714a9.101 9.101 0 0 0 4.442-1.15 6.857 6.857 0 0 1 4.13 6.293V26H7.333v-1.143a6.86 6.86 0 0 1 4.466-6.429 9.095 9.095 0 0 0 4.677 1.286z" fill="#FFC905" stroke="#353535" stroke-width=".7" stroke-linejoin="round"/>
    <path fill-rule="evenodd" clip-rule="evenodd" d="M11.567 17.804c.19-.07.4-.052.574.052a8.428 8.428 0 0 0 4.336 1.191c1.495 0 2.899-.386 4.117-1.065a.667.667 0 0 1 .59-.029 7.524 7.524 0 0 1 4.53 6.904c0 1-.81 1.81-1.809 1.81H8.477a1.81 1.81 0 0 1-1.806-1.7l-.004-.085v-.025a7.526 7.526 0 0 1 4.9-7.053zM8 24.845l.002.058c.023.241.227.43.475.43h15.428a.476.476 0 0 0 .476-.476 6.19 6.19 0 0 0-3.442-5.548 9.771 9.771 0 0 1-4.462 1.072 9.763 9.763 0 0 1-4.73-1.214A6.192 6.192 0 0 0 8 24.845z" fill="#353535" stroke="#353535" stroke-width=".7" stroke-linejoin="round"/>
    <path fill-rule="evenodd" clip-rule="evenodd" d="M16.477 16.095a4.38 4.38 0 1 0 0-8.762 4.38 4.38 0 0 0 0 8.762zm0 1.334a5.714 5.714 0 1 0 0-11.43 5.714 5.714 0 0 0 0 11.43z" fill="#353535" stroke="#353535" stroke-width=".7"/>
</svg>
