<svg width="16" height="16" viewBox="0 0 16 16" fill="none" xmlns="http://www.w3.org/2000/svg">
    <path d="M8.01 2a.667.667 0 0 1 .078 1.329l-.078.004H3.5a.833.833 0 0 0-.828.748l-.005.085V12.5c0 .431.328.786.748.829l.086.004h8.342a.833.833 0 0 0 .83-.748l.004-.085V8a.667.667 0 0 1 1.329-.078L14.01 8v4.5c0 1.155-.905 2.1-2.044 2.163l-.123.003H3.501c-1.156 0-2.1-.904-2.164-2.043l-.003-.123V4.166c0-1.155.904-2.1 2.044-2.163L3.5 2H8.01zm6-.667c.342 0 .624.257.662.589l.005.078v4a.667.667 0 0 1-1.33.077L13.344 6V3.61L7.815 9.138a.667.667 0 0 1-.999-.88l.056-.063 5.527-5.529H10.01a.667.667 0 0 1-.662-.589L9.343 2c0-.342.258-.624.59-.663l.077-.004h4z" fill="#003DA5"/>
</svg>
