<svg width="24" height="24" viewBox="0 0 24 24" fill="none" xmlns="http://www.w3.org/2000/svg">
    <path fill-rule="evenodd" clip-rule="evenodd" d="M15.55 5.01a2.95 2.95 0 1 0 0 5.9 2.95 2.95 0 0 0 0-5.9zm-3.558-.492a4.95 4.95 0 1 1 6.238 7.604A6.468 6.468 0 0 1 22 17.77V20a1 1 0 0 1-1 1H3a1 1 0 0 1-1-1v-2.231a6.47 6.47 0 0 1 3.557-5.77 4.952 4.952 0 0 1-1.016-7.005 4.95 4.95 0 0 1 7.451-.476zm-1.107 1.783a2.95 2.95 0 1 0 .02 3.371A4.94 4.94 0 0 1 10.6 7.96c0-.582.1-1.14.285-1.66zm1.146 5.14a4.936 4.936 0 0 1-.644.56c.273.139.537.297.79.473.22-.134.447-.254.68-.36a4.979 4.979 0 0 1-.826-.672zm-1.447 2.397a4.473 4.473 0 0 0-5.897 1.557A4.47 4.47 0 0 0 4 17.771V19h5.07v-1.273a6.47 6.47 0 0 1 1.514-3.889zM11.07 19H20v-1.207a4.47 4.47 0 0 0-8.93 0V19z" fill="#003DA5"/>
</svg>
