<svg xmlns="http://www.w3.org/2000/svg" width="24" height="24" fill="none"><path fill="#353535" fill-rule="evenodd" d="M5.11 6.82a1 1 0 0 1 1-1h5.91a1 1 0 1 1 0 2H6.11a1 1 0 0 1-1-1m0 3.35a1 1 0 0 1 1-1h4.91a1 1 0 1 1 0 2H6.11a1 1 0 0 1-1-1m0 3.35a1 1 0 0 1 1-1H9.4a1 1 0 1 1 0 2H6.11a1 1 0 0 1-1-1" clip-rule="evenodd"/><path fill="#353535" fill-rule="evenodd" d="M2.05 3a1 1 0 0 1 1-1h13.22a1 1 0 0 1 1 1v3.18a1 1 0 1 1-2 0V4H4.05v16h5.42a1 1 0 1 1 0 2H3.05a1 1 0 0 1-1-1z" clip-rule="evenodd"/><path fill="#353535" fill-rule="evenodd" d="M15.417 8.624a2.9 2.9 0 0 1 4.053 2.829V14a1 1 0 1 1-2 0v-2.58q0-.036.002-.072a.9.9 0 1 0-1.795 0l.003.072V14a1 1 0 1 1-2 0v-2.547a2.9 2.9 0 0 1 1.737-2.83z" clip-rule="evenodd"/><path fill="#353535" fill-rule="evenodd" d="M19.79 20.02a.22.22 0 0 0 .22-.22v-6.17h-6.86v6.17a.22.22 0 0 0 .22.22zm1.57 1.35a2.22 2.22 0 0 1-1.57.65h-6.42a2.22 2.22 0 0 1-2.22-2.22v-7.17a1 1 0 0 1 1-1h8.86a1 1 0 0 1 1 1v7.17a2.22 2.22 0 0 1-.65 1.57" clip-rule="evenodd"/></svg>