<svg xmlns="http://www.w3.org/2000/svg" width="32" height="32" fill="none"><path fill="#FFC905" fill-rule="evenodd" stroke="#353535" stroke-linejoin="round" stroke-width=".7" d="M16.477 19.714a9.1 9.1 0 0 0 4.442-1.15 6.86 6.86 0 0 1 4.13 6.293V26H7.333v-1.143a6.86 6.86 0 0 1 4.466-6.429 9.1 9.1 0 0 0 4.677 1.286z" clip-rule="evenodd"/><path fill="#353535" fill-rule="evenodd" stroke="#353535" stroke-linejoin="round" stroke-width=".7" d="M11.567 17.804c.19-.07.4-.052.574.052a8.43 8.43 0 0 0 4.336 1.191 8.4 8.4 0 0 0 4.117-1.065.67.67 0 0 1 .59-.029 7.52 7.52 0 0 1 4.53 6.904c0 1-.81 1.81-1.809 1.81H8.477a1.81 1.81 0 0 1-1.806-1.7l-.004-.085v-.025a7.53 7.53 0 0 1 4.9-7.053zM8 24.845l.002.058c.023.241.227.43.475.43h15.428a.476.476 0 0 0 .476-.476 6.19 6.19 0 0 0-3.442-5.548 9.8 9.8 0 0 1-4.462 1.072 9.76 9.76 0 0 1-4.73-1.214A6.19 6.19 0 0 0 8 24.845z" clip-rule="evenodd"/><path fill="#353535" fill-rule="evenodd" stroke="#353535" stroke-width=".7" d="M16.477 16.095a4.38 4.38 0 1 0 0-8.762 4.38 4.38 0 0 0 0 8.762zm0 1.334a5.714 5.714 0 1 0 0-11.43 5.714 5.714 0 0 0 0 11.43z" clip-rule="evenodd"/></svg>